# xmcd
#
# Track frame offsets:
#	150
#	13976
#	28280
#	45877
#	63812
#	81741
#	98060
#	118191
#	135714
#	156446
#	173346
#	189624
#	205150
#	223905
#	238210
#	259366
#	278114
#	296794
#	316808
#	333879
#
# Disc length: 4676 seconds
#
# Revision: 1
# Processed by: cddbd v1.5.2PL0 Copyright (c) Steve Scherf et al.
# Submitted via: dBpowerAMP V4.0
#
DISCID=32124214
DTITLE=Various Artist - ERG Nu Urban Traxx Vol. 210 CAN
DYEAR=2014
DGENRE=Urban
TTITLE0=Kendrick Lamar - I
TTITLE1=Wiz Khalifa ft. Snoop Dogg and Ty Dolla $ign - You And Your Friends
TTITLE2=Tinashe ft. A$ap Rocky - Pretend
TTITLE3=Juicy J ft. Nicki Minaj, Lil Bibby, and Young Thug - Low
TTITLE4=Jhene Aiko - The Pressure
TTITLE5=Mary J. Blige - Whole Damn Year
TTITLE6=I Love Makonnen ft. Drake - Tuesday
TTITLE7=Wale ft. Jeremih - The Body
TTITLE8=Jasmine V ft. Kendrick Lamar - That's Me Right There
TTITLE9=Luke Christopher - Life Jackets
TTITLE10=Childish Gambino - 3005
TTITLE11=Kid Ink ft. Usher and Tinashe - Body Language
TTITLE12=Ray J ft. Migos and Dria - ATM
TTITLE13=Jazmine Sullivan - Forever Don't Last
TTITLE14=Alicia Keys - We Are Here
TTITLE15=YG ft. Teeflii - Do It To Ya
TTITLE16=Weeknd, The - Often
TTITLE17=Big Sean ft. E-40 - I Don't F**k With You
TTITLE18=Jamie Foxx ft. 2 Chainz - Party Ain't A Party
TTITLE19=Traci Braxton - Last Call
EXTD=
EXTT0=
EXTT1=
EXTT2=
EXTT3=
EXTT4=
EXTT5=
EXTT6=
EXTT7=
EXTT8=
EXTT9=
EXTT10=
EXTT11=
EXTT12=
EXTT13=
EXTT14=
EXTT15=
EXTT16=
EXTT17=
EXTT18=
EXTT19=
PLAYORDER=
